<svg xmlns="http://www.w3.org/2000/svg" width="484.559" height="476.454" viewBox="0 0 484.559 476.454"><defs><style>.a{opacity:0.1;}.b{fill:#ff6d33;}.c{fill:#ffae8e;}.d{fill:#febfa6;}</style></defs><g class="a" transform="translate(0 -4.053)"><path class="b" d="M484.426,222.033c1.77,22.9-14.34,43.23-35.97,45.4-16.56,1.66-31.54-7.81-38.46-22.6l-19.63,1.73-14.82,7.15a11.191,11.191,0,0,0-6.19,8.59,130.716,130.716,0,0,1-7.47,28.87,11.137,11.137,0,0,0,.64,9.48l5.28,9.44,14.68,9.85a26.4,26.4,0,1,1-16.68,28.29l-16.27-10.91-10.24-1.25a11.792,11.792,0,0,0-9.58,3.23,132.513,132.513,0,0,1-29.01,20.96,11.65,11.65,0,0,0-6.11,9.58l-1.3,20.74,6.44,25.55a32.792,32.792,0,1,1-31.76,8.16l-6.47-25.7-9.99-16.06a14.631,14.631,0,0,0-12.5-6.85h-.08a132.417,132.417,0,0,1-25.59-2.5,14.607,14.607,0,0,0-13.48,4.23l-13.2,13.93L171.886,422a26.394,26.394,0,1,1-29.63-14.04l14.87-30.86,2.92-20.71a11,11,0,0,0-3.93-10.09,132.9,132.9,0,0,1-29.9-34.27,10.976,10.976,0,0,0-9.31-5.25l-20.68-.2-22.64,7.12a36.924,36.924,0,1,1-11.23-30.83l24.03-7.56,17.55-12.51a9.032,9.032,0,0,0,3.74-8.13q-.435-5.295-.44-10.69a130.9,130.9,0,0,1,11.98-54.83,9,9,0,0,0-.09-7.69l-5.2-10.63-14.11-10.65a26.395,26.395,0,1,1,18.22-27.32l15.64,11.8,15.76,2.81a132.013,132.013,0,0,1,39.53-25.33l3.7-22.48L188,76.443c-13.82-3.56-25.04-14.15-28.06-28.27-4.26-19.95,9.45-39.38,30.63-43.39s41.79,8.9,46.05,28.85c3.19,14.93-3.68,29.56-16.22,37.66l4.41,21.9,10.83,17.28a3.871,3.871,0,0,0,3.28,1.81h.02a130.807,130.807,0,0,1,67.85,18.88,3.82,3.82,0,0,0,3.58.2l16.96-7.86,19.8-21.42a26.39,26.39,0,1,1,24.07,22.26l-19.8,21.42-6.43,17.3a3.825,3.825,0,0,0,.5,3.58,131.012,131.012,0,0,1,18.34,35.48,11.244,11.244,0,0,0,7.57,7.27l16.1,4.51,20.92-1.85c5.13-14.79,17.94-25.98,33.67-27.56,21.63-2.17,40.6,14.64,42.36,37.54Z"/><circle class="c" cx="97.52" cy="97.52" r="97.52" transform="translate(141.416 146.463)"/><path class="d" d="M171.14,243.983A97.542,97.542,0,0,1,253.8,147.588a97.52,97.52,0,1,0,0,192.79,97.545,97.545,0,0,1-82.658-96.395Z"/><circle class="b" cx="27.771" cy="27.771" r="27.771" transform="translate(47.082 11.15)"/><circle class="b" cx="18.343" cy="18.343" r="18.343" transform="translate(48.919 386.643)"/><circle class="b" cx="27.018" cy="27.018" r="27.018" transform="translate(377.033 408.1)"/><circle class="b" cx="25.189" cy="25.189" r="25.189" transform="translate(183.813 191.9)"/><circle class="b" cx="17.145" cy="17.145" r="17.145" transform="translate(212.077 278.183)"/><circle class="b" cx="14.397" cy="14.397" r="14.397" transform="translate(268.661 229.586)"/></g></svg>